<?xml version="1.0" standalone="no"?><!DOCTYPE svg PUBLIC "-//W3C//DTD SVG 1.1//EN" "http://www.w3.org/Graphics/SVG/1.1/DTD/svg11.dtd"><svg t="1642055462163" class="icon" viewBox="0 0 1024 1024" version="1.1" xmlns="http://www.w3.org/2000/svg" p-id="1226" xmlns:xlink="http://www.w3.org/1999/xlink" width="200" height="200"><defs><style type="text/css"></style></defs><path d="M860.5696 371.63008L593.7152 102.4a74.3424 74.3424 0 0 0-14.21312-11.0592 58.49088 58.49088 0 0 0-4.21888-2.17088c-0.90112-0.49152-1.8432-0.86016-2.70336-1.2288A69.46816 69.46816 0 0 0 544.64512 81.92h-332.1856C174.32576 81.92 143.36 112.8448 143.36 151.06048v680.96C143.36 870.15424 174.2848 901.12 212.50048 901.12h203.48928a34.52928 34.52928 0 1 0 0-69.14048H212.45952V151.06048H512v230.44096c0 38.17472 30.9248 69.09952 69.14048 69.09952h230.35904v149.74976a34.52928 34.52928 0 1 0 69.14048 0v-179.97824c0-18.26816-7.20896-35.71712-20.0704-48.70144z m-279.47008 9.8304V187.88352l191.81568 193.57696h-191.81568z" fill="#595959" p-id="1227"></path><path d="M746.41408 829.8496a163.84 163.84 0 1 1 38.0928-42.92608 30.59712 30.59712 0 0 1 10.89536 7.04512l43.45856 43.4176a30.72 30.72 0 1 1-43.4176 43.45856l-43.45856-43.4176a30.72 30.72 0 0 1-5.57056-7.5776z m-27.4432-51.48672a102.4 102.4 0 1 0-144.7936-144.7936 102.4 102.4 0 0 0 144.7936 144.7936z" fill="#595959" p-id="1228"></path></svg>